<svg width="37" height="33" viewBox="0 0 37 33" fill="none" xmlns="http://www.w3.org/2000/svg">
<path d="M22.3902 22.2974H11.2323C5.65804 28.595 4 21.2122 4 15.0538C4 6.6313 10.6469 0 18.8472 0H18.3961C26.5963 0 33.2433 6.6313 33.2433 15.0538C33.2446 21.2108 28.3846 22.2974 22.3902 22.2974Z" fill="url(#paint0_linear_171855_23559)"/>
<path d="M6.72268 32.5083C5.9628 32.5083 5.31838 32.2256 4.79076 31.6602C4.26314 31.0949 4 30.4054 4 29.5918C4 29.0499 4.11949 28.5645 4.36114 28.1343C4.60146 27.7041 4.9277 27.3579 5.33851 27.0946C5.74933 26.8312 6.21117 26.7002 6.72268 26.7002C7.21942 26.7002 7.6732 26.8312 8.08401 27.0946C8.49483 27.3579 8.8251 27.7041 9.07347 28.1343C9.32184 28.5645 9.44535 29.0513 9.44535 29.5918C9.44535 30.1337 9.32049 30.6233 9.07347 31.0618C8.8251 31.5003 8.49483 31.8505 8.08401 32.1139C7.6732 32.3773 7.21942 32.5083 6.72268 32.5083Z" fill="url(#paint1_linear_171855_23559)"/>
<path d="M18.1726 10.4379C17.8383 11.8743 17.6033 13.5012 17.5442 14.673C17.5362 14.8424 17.4019 14.9754 17.2395 14.9754H15.5506C15.3693 14.9754 15.227 14.813 15.2458 14.6254C15.3908 13.2212 15.8849 11.4459 16.4541 10.2293C16.5065 10.1187 16.6125 10.0473 16.7307 10.0473C17.0045 10.0473 17.5187 10.0473 17.8772 10.0473C18.0745 10.0459 18.2195 10.2377 18.1726 10.4379ZM21.6135 10.4407C21.2497 11.8911 21.0577 13.4088 21.008 14.673C21.0013 14.8424 20.867 14.9754 20.7046 14.9754H19.0143C18.8331 14.9754 18.6921 14.813 18.7096 14.624C18.8572 13.0028 19.4198 11.3017 19.9232 10.2265C19.9742 10.1159 20.0816 10.0459 20.1984 10.0459H21.3195C21.5168 10.0459 21.6632 10.2405 21.6135 10.4407Z" fill="#1F3969"/>
<defs>
<linearGradient id="paint0_linear_171855_23559" x1="23.6619" y1="24.791" x2="10.4746" y2="2.55282" gradientUnits="userSpaceOnUse">
<stop stop-color="#7F94FF"/>
<stop offset="0.5062" stop-color="#0076FF"/>
<stop offset="1" stop-color="#E4E5E6"/>
</linearGradient>
<linearGradient id="paint1_linear_171855_23559" x1="8.11826" y1="32.0956" x2="5.19994" y2="27.1744" gradientUnits="userSpaceOnUse">
<stop stop-color="#7F94FF"/>
<stop offset="0.5062" stop-color="#0076FF"/>
<stop offset="1" stop-color="#E4E5E6"/>
</linearGradient>
</defs>
</svg>
