<svg width="146" height="35" viewBox="0 0 146 35" fill="none" xmlns="http://www.w3.org/2000/svg">
<path d="M33.9121 28.2015C33.9121 31.4312 31.2934 34.0494 28.063 34.0494C24.8326 34.0494 22.2139 31.4312 22.2139 28.2015C22.2139 24.9717 24.8326 22.3535 28.063 22.3535C31.2934 22.3535 33.9121 24.9717 33.9121 28.2015Z" fill="#3CDFAE"/>
<path fill-rule="evenodd" clip-rule="evenodd" d="M28.0465 0C31.2765 -1.40679e-07 33.8948 2.62518 33.8948 5.86349V12.5877C33.8948 15.826 31.2765 18.4512 28.0465 18.4512C24.8166 18.4512 22.1982 15.826 22.1982 12.5877L22.1982 5.86349C22.1982 2.62518 24.8166 1.40679e-07 28.0465 0Z" fill="#077AFD"/>
<path d="M19.6004 12.6643C19.6004 14.2777 18.9469 15.7385 17.8902 16.7966L17.8903 16.7966L14.1837 20.434L17.9026 24.1266L17.9009 24.1283C18.9231 25.1813 19.5525 26.6176 19.5525 28.201C19.5525 31.4307 16.9338 34.0489 13.7034 34.0489C12.1082 34.0489 10.6621 33.4104 9.60688 32.3752L1.84073 24.6916C0.707532 23.6251 0 22.1115 0 20.4327C0 18.7641 0.698993 17.2587 1.8202 16.1933L9.64439 8.50037C10.7005 7.45907 12.1508 6.81641 13.7513 6.81641C16.9817 6.81641 19.6004 9.43462 19.6004 12.6643Z" fill="#077AFD"/>
<path d="M54.1335 24.5537C52.7057 24.5537 51.453 24.2578 50.3754 23.666C49.3113 23.0743 48.4829 22.2269 47.8903 21.1241C47.3111 20.0212 47.0215 18.7301 47.0215 17.2506C47.0215 15.7847 47.3111 14.5002 47.8903 13.3974C48.4829 12.2945 49.3113 11.4472 50.3754 10.8554C51.453 10.2637 52.7057 9.96777 54.1335 9.96777C55.8441 9.96777 57.346 10.4183 58.6391 11.3194C58.8681 11.4808 59.0297 11.6557 59.124 11.844C59.2318 12.0323 59.2856 12.2744 59.2856 12.5702C59.2856 12.9872 59.1644 13.3436 58.922 13.6395C58.693 13.9219 58.4101 14.0631 58.0734 14.0631C57.8713 14.0631 57.6895 14.0362 57.5278 13.9824C57.3662 13.9152 57.1776 13.8143 56.9621 13.6798C56.4907 13.3974 56.0462 13.1956 55.6286 13.0746C55.2111 12.9536 54.78 12.893 54.3355 12.893C53.1367 12.893 52.241 13.2562 51.6483 13.9824C51.0691 14.6953 50.7795 15.7847 50.7795 17.2506C50.7795 18.7301 51.0691 19.8329 51.6483 20.5592C52.241 21.272 53.1367 21.6284 54.3355 21.6284C54.7396 21.6284 55.1302 21.5679 55.5074 21.4469C55.8845 21.3124 56.3695 21.1106 56.9621 20.8417C57.245 20.6937 57.4538 20.5928 57.5885 20.539C57.7232 20.4852 57.8848 20.4583 58.0734 20.4583C58.4101 20.4583 58.693 20.6063 58.922 20.9022C59.1644 21.1846 59.2856 21.5343 59.2856 21.9512C59.2856 22.2337 59.2318 22.4758 59.124 22.6775C59.0297 22.8658 58.8681 23.0406 58.6391 23.202C57.346 24.1031 55.8441 24.5537 54.1335 24.5537Z" fill="#B1B9D6"/>
<path d="M68.5415 24.5537C67.0868 24.5537 65.8207 24.2578 64.7431 23.666C63.679 23.0608 62.8573 22.2135 62.2781 21.1241C61.6989 20.0212 61.4093 18.7301 61.4093 17.2506C61.4093 15.7712 61.6989 14.4868 62.2781 13.3974C62.8573 12.2945 63.679 11.4472 64.7431 10.8554C65.8207 10.2637 67.0868 9.96777 68.5415 9.96777C69.9963 9.96777 71.2557 10.2637 72.3198 10.8554C73.3974 11.4472 74.219 12.2945 74.7847 13.3974C75.3639 14.4868 75.6535 15.7712 75.6535 17.2506C75.6535 18.7301 75.3639 20.0212 74.7847 21.1241C74.2055 22.2135 73.3772 23.0608 72.2996 23.666C71.2355 24.2578 69.9828 24.5537 68.5415 24.5537ZM68.5415 21.7091C69.6191 21.7091 70.461 21.3326 71.0671 20.5794C71.6732 19.8128 71.9763 18.7032 71.9763 17.2506C71.9763 15.7981 71.6665 14.6953 71.0469 13.9421C70.4408 13.1889 69.6056 12.8123 68.5415 12.8123C67.464 12.8123 66.6221 13.1889 66.016 13.9421C65.4098 14.6818 65.1068 15.7847 65.1068 17.2506C65.1068 18.7166 65.4098 19.8262 66.016 20.5794C66.6221 21.3326 67.464 21.7091 68.5415 21.7091Z" fill="#B1B9D6"/>
<path d="M80.7026 24.4932C80.1369 24.4932 79.6857 24.3318 79.3489 24.009C79.0256 23.6728 78.864 23.2222 78.864 22.6573V11.8641C78.864 11.3127 79.0256 10.8756 79.3489 10.5528C79.6857 10.2166 80.1369 10.0485 80.7026 10.0485C81.2818 10.0485 81.7398 10.2166 82.0765 10.5528C82.4133 10.8756 82.5816 11.3127 82.5816 11.8641V22.6573C82.5816 23.2222 82.4133 23.6728 82.0765 24.009C81.7398 24.3318 81.2818 24.4932 80.7026 24.4932Z" fill="#B1B9D6"/>
<path d="M97.1193 10.0485C97.6311 10.0485 98.0487 10.2166 98.372 10.5528C98.7087 10.8891 98.8771 11.3262 98.8771 11.8641V22.6573C98.8771 23.2088 98.7154 23.6526 98.3922 23.9888C98.0689 24.3251 97.6513 24.4932 97.1395 24.4932C96.5334 24.4932 96.0754 24.2914 95.7656 23.888L89.6234 16.2419V22.6573C89.6234 23.2088 89.4685 23.6526 89.1587 23.9888C88.8489 24.3251 88.4313 24.4932 87.906 24.4932C87.3942 24.4932 86.9766 24.3251 86.6533 23.9888C86.3301 23.6526 86.1684 23.2088 86.1684 22.6573V11.8641C86.1684 11.3262 86.3301 10.8891 86.6533 10.5528C86.9766 10.2166 87.3942 10.0485 87.906 10.0485C88.4852 10.0485 88.9364 10.2502 89.2597 10.6537L95.4019 18.2795V11.8641C95.4019 11.3127 95.5568 10.8756 95.8666 10.5528C96.1899 10.2166 96.6074 10.0485 97.1193 10.0485Z" fill="#B1B9D6"/>
<path d="M104.188 24.3721C103.635 24.3721 103.211 24.2242 102.915 23.9283C102.618 23.6324 102.47 23.2088 102.47 22.6573V11.8641C102.47 11.3127 102.618 10.8891 102.915 10.5932C103.211 10.2973 103.635 10.1493 104.188 10.1493H108.269C109.845 10.1493 111.199 10.4385 112.33 11.0168C113.475 11.5817 114.35 12.3954 114.957 13.4579C115.563 14.5204 115.866 15.7847 115.866 17.2506C115.866 18.7301 115.563 20.0078 114.957 21.0837C114.364 22.1462 113.495 22.9599 112.35 23.5248C111.219 24.0897 109.858 24.3721 108.269 24.3721H104.188ZM108.006 21.3864C109.394 21.3864 110.431 21.0501 111.118 20.3776C111.818 19.6917 112.168 18.6494 112.168 17.2506C112.168 15.8519 111.818 14.8163 111.118 14.1438C110.431 13.4714 109.394 13.1351 108.006 13.1351H106.188V21.3864H108.006Z" fill="#B1B9D6"/>
<path d="M120.825 24.3721C120.272 24.3721 119.848 24.2242 119.552 23.9283C119.256 23.6324 119.107 23.2088 119.107 22.6573V11.8641C119.107 11.3127 119.256 10.8891 119.552 10.5932C119.848 10.2973 120.272 10.1493 120.825 10.1493H127.816C128.395 10.1493 128.832 10.2704 129.129 10.5125C129.425 10.7546 129.573 11.1043 129.573 11.5615C129.573 12.5299 128.987 13.0141 127.816 13.0141H122.724V15.7174H127.411C128.583 15.7174 129.169 16.1949 129.169 17.1498C129.169 17.6071 129.021 17.9567 128.725 18.1988C128.428 18.4409 127.991 18.562 127.411 18.562H122.724V21.5074H127.816C128.987 21.5074 129.573 21.9916 129.573 22.9599C129.573 23.4172 129.425 23.7669 129.129 24.009C128.832 24.2511 128.395 24.3721 127.816 24.3721H120.825Z" fill="#B1B9D6"/>
<path d="M133.891 24.3721C133.338 24.3721 132.914 24.2242 132.618 23.9283C132.321 23.6324 132.173 23.2088 132.173 22.6573V11.8641C132.173 11.3127 132.321 10.8891 132.618 10.5932C132.914 10.2973 133.338 10.1493 133.891 10.1493H140.881C141.461 10.1493 141.898 10.2704 142.195 10.5125C142.491 10.7546 142.639 11.1043 142.639 11.5615C142.639 12.5299 142.053 13.0141 140.881 13.0141H135.79V15.7174H140.477C141.649 15.7174 142.235 16.1949 142.235 17.1498C142.235 17.6071 142.087 17.9567 141.791 18.1988C141.494 18.4409 141.056 18.562 140.477 18.562H135.79V21.5074H140.881C142.053 21.5074 142.639 21.9916 142.639 22.9599C142.639 23.4172 142.491 23.7669 142.195 24.009C141.898 24.2511 141.461 24.3721 140.881 24.3721H133.891Z" fill="#B1B9D6"/>
</svg>
