<svg width="40" height="40" viewBox="0 0 40 40" fill="none" xmlns="http://www.w3.org/2000/svg">
<path d="M32.963 7.03712C32.0087 7.66187 29.8081 8.79999 27.9583 8.57312C26.1083 8.34624 24.3586 7.55504 23.715 7.1878C24.6349 8.49313 26.1803 11.695 25.0022 14.0599C23.5296 17.016 21.1189 18.205 16.2866 16.6015C16.7993 17.8995 17.5105 21.1457 16.2539 23.7462C18.8544 22.4896 22.1006 23.2009 23.3986 23.7136C21.7952 18.8813 22.9841 16.4706 25.9402 14.998C28.3051 13.8199 31.507 15.3652 32.8123 16.2851C32.4451 15.6415 31.6539 13.8919 31.427 12.0419C31.2001 10.192 32.3382 7.9914 32.963 7.03712Z" fill="white"/>
<path d="M22.1678 8.15903C18.1607 7.31567 13.8206 8.44974 10.7091 11.5612C7.31429 14.956 6.2734 19.8133 7.58641 24.105C8.71196 25.0017 10.0695 25.0916 10.7385 25.0089C8.69675 21.3243 8.95598 16.7062 11.5162 13.2586C11.212 14.5514 11.1666 16.0592 11.6771 17.6604C11.7993 15.7723 12.5459 11.5215 15.5347 9.93142C17.8717 8.80452 20.5279 8.5616 23.0025 9.20265C22.7939 8.77183 22.5098 8.44634 22.1678 8.15903Z" fill="white"/>
<path d="M15.0083 29.271C14.9246 29.9347 15.0109 31.2886 15.8996 32.4151C20.1902 33.726 25.0453 32.6847 28.4389 29.2911C31.5504 26.1796 32.6845 21.8395 31.8411 17.8324C31.5538 17.4903 31.2283 17.2062 30.7974 16.9976C31.5689 19.9756 31.0601 23.2168 29.2711 25.8478C29.4441 24.7087 29.4025 23.4349 28.9758 22.0965C28.8609 23.8733 28.1316 27.5298 25.4196 29.3244C22.1773 31.07 18.2364 31.0522 15.0083 29.271Z" fill="white"/>
<path d="M14.1342 25.8661L13.8577 26.6004C13.216 28.3047 13.3163 30.1996 14.1342 31.8267L8.92198 31.0783L8.17349 25.8661C9.80059 26.684 11.6956 26.7842 13.3999 26.1425L14.1342 25.8661Z" fill="white"/>
</svg>
