<svg width="80" height="29" viewBox="0 0 80 29" fill="none" xmlns="http://www.w3.org/2000/svg">
<path d="M54.2129 21.2158C54.2129 21.8495 54.4808 22.1669 55.0166 22.167C55.5526 22.167 55.8212 21.8496 55.8213 21.2158V0.459961H63.0215V19.4121C63.0215 22.1225 62.3111 24.2537 60.8896 25.8057C59.4681 27.3576 57.4873 28.1337 54.9473 28.1338C52.4071 28.1338 50.4255 27.3577 49.0039 25.8057C47.5826 24.2537 46.8721 22.1224 46.8721 19.4121V0.459961H54.2129V21.2158ZM71.4668 0.000976562C73.8902 0.0010426 75.7892 0.624259 77.1641 1.87012C78.5389 3.11603 79.2265 4.85354 79.2266 7.08301V8.72266H72.375V6.82129C72.375 6.51552 72.3056 6.26404 72.166 6.06738C72.0262 5.87065 71.8158 5.77148 71.5361 5.77148C71.2566 5.77154 71.0352 5.8811 70.8721 6.09961C70.709 6.31818 70.6279 6.60244 70.6279 6.95215V7.41113C70.6279 8.46038 71.3382 9.45556 72.7598 10.3955L74.4023 11.4775C76.2667 12.7235 77.5835 14.0133 78.3525 15.3467C79.1215 16.6581 79.5068 18.2315 79.5068 20.0674V20.7236C79.5068 23.0843 78.8191 24.9095 77.4443 26.1992C76.0694 27.4889 74.0996 28.1338 71.5361 28.1338C69.0193 28.1338 67.0613 27.5106 65.6631 26.2646C64.2651 25.0187 63.5664 23.3029 63.5664 21.1172V19.0186H70.5576V21.3135C70.5576 21.6195 70.6277 21.8716 70.7676 22.0684C70.9307 22.2648 71.1522 22.3633 71.4316 22.3633C71.7345 22.3632 71.9678 22.2537 72.1309 22.0352C72.2939 21.8166 72.375 21.5323 72.375 21.1826V20.4609C72.3748 19.3463 71.6408 18.3084 70.1729 17.3467L68.5303 16.2646C66.6659 15.0405 65.3837 13.7942 64.6846 12.5264C63.9855 11.2585 63.6357 9.68454 63.6357 7.80469V7.08301C63.6358 4.89726 64.3234 3.17011 65.6982 1.90234C67.0732 0.634528 68.9965 0.000976562 71.4668 0.000976562ZM9.82324 12.8877L9.64844 0.459961H16.1504V27.6748H9.36816L6.32715 15.248L6.50195 27.6748H0V0.459961H6.78125L9.82324 12.8877ZM29.6982 6.69043H20.7842L24.4541 8.5918V11.0186H28.9287V16.9199H24.4541V21.4453H29.7676V27.6748H17.1133V0.459961H29.6982V6.69043ZM38.3477 7.5293H34.5439L36.958 9.23535V20.1934L34.5439 21.9561H37.8438L36.9092 27.6748H30.0576L32.8193 13.543L30.2676 0.459961H37.1885L38.3477 7.5293ZM43.9004 13.543L46.6621 27.6748H39.6709L38.7598 21.9561H41.8682L39.5557 20.1934V9.23535L41.8682 7.53027L38.543 7.5293L39.6709 0.459961H46.4521L43.9004 13.543Z" fill="white"/>
</svg>
